#!OML:ASF E:\Mandelcareful walks\Project 1\Capture day 1\Session 1\Subject1.ASF
:FULLY-SPECIFIED
:DEGREES
1229
root 2.4038 16.9198 0.965148 -131.906 -88.0002 140.845
lowerback -6.975 -0.769319 -2.06229
upperback -1.67549 -0.93196 0.722739
thorax 2.22475 -0.490945 1.82075
lowerneck -19.1356 -12.8817 -16.1337
upperneck 23.9293 -15.9709 8.431
head 13.2411 -7.62131 2.8792
rclavicle 7.34261e-015 -3.57812e-015
rhumerus -23.6766 -56.9716 -10.8837
rradius 26.0025
rwrist -24.2439
rhand -3.60993 -29.3867
rfingers 7.12502
rthumb 22.1285 -58.1403
lclavicle 7.34261e-015 -3.57812e-015
lhumerus -27.9275 43.3364 11.9153
lradius 24.7065
lwrist 17.5262
lhand -31.2837 -10.3013
lfingers 7.12502
lthumb -4.55712 19.6297
rfemur -7.84934 6.86829 11.4454
rtibia 15.6467
rfoot -17.2952 -21.5637
rtoes 8.1746
lfemur -10.4339 -10.3337 -13.4499
ltibia 24.7107
lfoot -26.2269 24.0967
ltoes 2.64658
1230
root 2.41059 16.9115 0.967912 -127.378 -87.7384 136.19
lowerback -6.8586 -0.74466 -2.38451
upperback -1.68104 -0.87627 0.640337
thorax 2.15481 -0.463414 1.92319
lowerneck -18.9041 -12.866 -16.2456
upperneck 23.8465 -15.987 8.5551
head 13.1882 -7.63324 2.95132
rclavicle 2.17421e-015 7.15625e-015
rhumerus -24.017 -57.4658 -10.4614
rradius 25.8925
rwrist -23.5303
rhand -4.95747 -29.4627
rfingers 7.12502
rthumb 20.8343 -58.3641
lclavicle 2.17421e-015 7.15625e-015
lhumerus -27.7513 42.5026 12.2891
lradius 24.8825
lwrist 18.6778
lhand -31.817 -9.91018
lfingers 7.12502
lthumb -5.07207 20.0091
rfemur -7.74453 6.88535 11.0779
rtibia 15.7444
rfoot -17.5867 -21.3198
rtoes 9.30216
lfemur -10.3066 -10.3329 -13.8552
ltibia 24.7054
lfoot -26.0848 24.189
ltoes 2.24979
1231
root 2.41432 16.9163 0.972706 -124.179 -87.4752 132.918
lowerback -7.13889 -0.733809 -2.67563
upperback -1.43636 -0.824805 0.556452
thorax 2.5635 -0.445425 2.00067
lowerneck -18.8282 -12.8914 -16.3373
upperneck 23.5225 -16.0507 8.84451
head 13.0902 -7.63434 3.06628
rclavicle 2.59662e-015 1.78906e-015
rhumerus -24.0738 -58.234 -10.3141
rradius 25.7418
rwrist -22.9001
rhand -5.05283 -29.4889
rfingers 7.12502
rthumb 20.7427 -58.4003
lclavicle 2.59662e-015 1.78906e-015
lhumerus -27.5938 42.1045 12.6693
lradius 25.1604
lwrist 19.4901
lhand -32.2723 -9.61958
lfingers 7.12502
lthumb -5.51166 20.2887
rfemur -7.76597 6.57814 10.744
rtibia 15.7747
rfoot -17.1448 -21.2328
rtoes 8.14793
lfemur -10.2383 -10.2351 -14.2511
ltibia 24.7499
lfoot -25.9367 24.2079
ltoes 1.96411
1232
root 2.42049 16.9109 0.976694 -124.211 -87.4594 132.913
lowerback -6.92725 -0.741625 -2.69301
upperback -1.60932 -0.844189 0.542882
thorax 2.26805 -0.450439 1.99779
lowerneck -18.4214 -12.8286 -16.4489
upperneck 23.398 -16.0541 9.04273
head 12.9923 -7.64147 3.17813
rclavicle 6.16232e-015 -1.31198e-014
rhumerus -24.1117 -57.2555 -10.4557
rradius 25.8595
rwrist -23.4842
rhand -4.74945 -29.3186
rfingers 7.12502
rthumb 21.0341 -58.1979
lclavicle 6.16232e-015 -1.31198e-014
lhumerus -27.8143 41.107 12.6599
lradius 25.3875
lwrist 20.0231
lhand -32.3705 -9.67659
lfingers 7.12502
lthumb -5.60644 20.2292
rfemur -7.73242 6.61671 10.7097
rtibia 15.7988
rfoot -17.3291 -21.1842
rtoes 8.2809
lfemur -10.1962 -10.438 -14.2969
ltibia 24.7691
lfoot -26.1885 24.3295
ltoes 2.30163
1233
root 2.4273 16.8995 0.978891 -125.591 -87.4747 134.24
lowerback -6.86472 -0.747251 -2.64126
upperback -1.67058 -0.858473 0.527925
thorax 2.16986 -0.455766 1.953
lowerneck -17.8495 -12.7047 -16.558
upperneck 22.9915 -16.0043 9.38836
head 12.7564 -7.61387 3.366
rclavicle -3.60297e-016 3.18055e-015
rhumerus -24.0519 -55.8763 -10.8481
rradius 26.1615
rwrist -24.7857
rhand -5.02252 -29.3135
rfingers 7.12502
rthumb 20.7718 -58.2217
lclavicle -3.60297e-016 3.18055e-015
lhumerus -27.942 40.1787 12.6238
lradius 25.5273
lwrist 20.7442
lhand -32.0969 -10.0687
lfingers 7.12502
lthumb -5.34227 19.844
rfemur -7.64169 6.8612 10.7443
rtibia 15.8305
rfoot -17.8894 -21.059
rtoes 9.75385
lfemur -10.1346 -10.552 -14.2644
ltibia 24.7628
lfoot -26.3486 24.4342
ltoes 2.63035
1234
root 2.46422 16.917 0.968296 -134.877 -87.7134 143.636
lowerback -6.59803 -0.704378 -2.40048
upperback -1.79625 -0.83146 0.689254
thorax 1.88957 -0.437308 1.98987
lowerneck -17.9937 -12.6757 -16.3355
upperneck 23.2772 -15.9481 9.07419
head 12.836 -7.60315 3.21917
rclavicle 6.24929e-015 -9.93923e-015
rhumerus -23.9624 -55.1676 -11.1046
rradius 26.3488
rwrist -25.4967
rhand -6.3622 -29.6242
rfingers 7.12502
rthumb 19.4841 -58.6679
lclavicle 6.24929e-015 -9.93923e-015
lhumerus -28.0736 40.1092 12.45
lradius 25.4926
lwrist 20.7544
lhand -31.8115 -10.3427
lfingers 7.12502
lthumb -5.06668 19.5767
rfemur -7.90573 8.66441 11.3275
rtibia 15.701
rfoot -18.0705 -22.8523
rtoes 9.28265
lfemur -10.4829 -10.4521 -13.6311
ltibia 24.8389
lfoot -26.1795 24.5053
ltoes 2.90728
1235
root 2.47806 16.926 0.968176 -136.06 -87.721 144.84
lowerback -6.66177 -0.727665 -2.43725
upperback -1.7295 -0.857736 0.731726
thorax 1.99639 -0.452109 2.05113
lowerneck -18.4605 -12.7022 -16.0418
upperneck 23.697 -15.9062 8.62399
head 13.0151 -7.59432 2.98985
rclavicle 1.75179e-015 3.97569e-015
rhumerus -23.8107 -55.9668 -11.0915
rradius 26.1379
rwrist -24.7025
rhand -7.74772 -29.7938
rfingers 7.12502
rthumb 18.1516 -58.9669
lclavicle 1.75179e-015 3.97569e-015
lhumerus -28.2281 40.7262 12.158
lradius 25.3534
lwrist 20.2625
lhand -31.9822 -10.2552
lfingers 7.12502
lthumb -5.23156 19.6602
rfemur -7.97623 8.91234 11.3937
rtibia 15.5578
rfoot -17.6628 -23.3699
rtoes 7.59509
lfemur -10.6047 -10.4603 -13.5585
ltibia 24.8964
lfoot -26.1563 24.5494
ltoes 2.80905
1236
root 2.48195 16.9247 0.971796 -135.696 -87.7067 144.465
lowerback -6.82269 -0.777108 -2.46884
upperback -1.60544 -0.915067 0.754922
thorax 2.21789 -0.484195 2.08543
lowerneck -18.3807 -12.6656 -16.1519
upperneck 23.3792 -15.8585 8.86036
head 12.8997 -7.5556 3.11149
rclavicle -5.56597e-015 5.56597e-015
rhumerus -23.6143 -57.014 -11.0437
rradius 25.8285
rwrist -23.7422
rhand -7.28121 -29.66
rfingers 7.12502
rthumb 18.6003 -58.7907
lclavicle -5.56597e-015 5.56597e-015
lhumerus -28.4605 41.6708 11.7042
lradius 25.1164
lwrist 19.4508
lhand -32.1405 -10.0706
lfingers 7.12502
lthumb -5.38443 19.841
rfemur -7.95052 8.76853 11.3502
rtibia 15.4957
rfoot -17.6053 -23.2715
rtoes 7.56301
lfemur -10.6096 -10.5831 -13.5923
ltibia 24.8961
lfoot -26.3144 24.6078
ltoes 2.90128
1237
root 2.48644 16.9252 0.975097 -135.876 -87.691 144.642
lowerback -6.86064 -0.795612 -2.44914
upperback -1.56706 -0.93975 0.774559
thorax 2.28003 -0.497381 2.09178
lowerneck -18.409 -12.6688 -16.2773
upperneck 23.3209 -15.8308 8.93313
head 12.8977 -7.54309 3.16211
rclavicle 9.75287e-015 7.15625e-015
rhumerus -23.5376 -57.2798 -11.0063
rradius 25.7398
rwrist -23.5211
rhand -4.49545 -29.3479
rfingers 7.12502
rthumb 21.2781 -58.1999
lclavicle 9.75287e-015 7.15625e-015
lhumerus -28.7701 42.7933 11.1453
lradius 24.8468
lwrist 18.1571
lhand -31.8839 -10.1758
lfingers 7.12502
lthumb -5.13661 19.742
rfemur -7.98058 8.67354 11.319
rtibia 15.5127
rfoot -17.6382 -23.1577
rtoes 8.22203
lfemur -10.625 -10.7428 -13.6054
ltibia 24.9061
lfoot -26.5216 24.7017
ltoes 3.26907
